<svg display="none" xmlns="http://www.w3.org/2000/svg">
    <!-- Icon download -->
    <symbol id="icon-download" viewBox="0 0 24 24" fill="none"
        stroke="currentColor" stroke-width="2" stroke-linecap="round" stroke-linejoin="round">
        <path d="M12 15V3" />
        <path d="M21 15v4a2 2 0 0 1-2 2H5a2 2 0 0 1-2-2v-4" />
        <path d="m7 10 5 5 5-5" />
    </symbol>

    <!-- Icon delete -->
    <symbol id="icon-delete" viewBox="0 0 24 24" fill="none"
        stroke="currentColor" stroke-width="2" stroke-linecap="round" stroke-linejoin="round">
        <path d="M3 6h18" />
        <path d="M19 6v14c0 1-1 2-2 2H7c-1 0-2-1-2-2V6" />
        <path d="M8 6V4c0-1 1-2 2-2h4c1 0 2 1 2 2v2" />
        <line x1="10" x2="10" y1="11" y2="17" />
        <line x1="14" x2="14" y1="11" y2="17" />
    </symbol>

    <!-- Icon eye -->
    <symbol id="icon-eye-on" viewBox="0 0 24 24" fill="none"
        stroke="currentColor" stroke-width="2" stroke-linecap="round" stroke-linejoin="round">
        <path
            d="M2.062 12.348a1 1 0 0 1 0-.696 10.75 10.75 0 0 1 19.876 0 1 1 0 0 1 0 .696 10.75 10.75 0 0 1-19.876 0" />
        <circle cx="12" cy="12" r="3" />
    </symbol>

    <!-- Icon eye close -->
    <symbol id="icon-eye-off" viewBox="0 0 24 24" fill="none"
        stroke="currentColor" stroke-width="2" stroke-linecap="round" stroke-linejoin="round">
        <path
            d="M10.733 5.076a10.744 10.744 0 0 1 11.205 6.575 1 1 0 0 1 0 .696 10.747 10.747 0 0 1-1.444 2.49" />
        <path d="M14.084 14.158a3 3 0 0 1-4.242-4.242" />
        <path
            d="M17.479 17.499a10.75 10.75 0 0 1-15.417-5.151 1 1 0 0 1 0-.696 10.75 10.75 0 0 1 4.446-5.143" />
        <path d="m2 2 20 20" />
    </symbol>
</svg>